<svg width="160" height="160" viewBox="0 0 160 160" fill="none" xmlns="http://www.w3.org/2000/svg">
<rect width="160" height="160" rx="40" fill="#3DCD5C" fill-opacity="0.1"/>
<g clip-path="url(#clip0_922_1002)">
<path d="M110.75 91.7494H109.5V51.75C109.5 49.6821 107.818 48 105.75 48H54.2502C52.1824 48 50.5002 49.6821 50.5002 51.75V91.7494H49.2502C48.5598 91.7494 48.0002 92.3095 48.0002 92.9994V96.7494C48.0002 98.8173 49.6824 100.499 51.7502 100.499H82.0812V108.25C82.0812 110.318 83.7634 112 85.8312 112H100.75C102.818 112 104.5 110.318 104.5 108.25V100.499H108.25C110.318 100.499 112 98.8173 112 96.7494V92.9994C112 92.3095 111.441 91.7494 110.75 91.7494V91.7494ZM104.5 91.7494V89.2494H107V91.7494H104.5ZM54.2502 50.5H105.75C106.439 50.5 107 51.0605 107 51.75V53H53.0002V51.75C53.0002 51.0605 53.5608 50.5 54.2502 50.5ZM53.0002 89.2494H54.2502C54.9407 89.2494 55.5002 88.6899 55.5002 87.9994C55.5002 87.309 54.9407 86.7494 54.2502 86.7494H53.0002V55.5H107V86.7494H104.5V78.2499C104.5 76.1821 102.818 74.4999 100.75 74.4999H85.8312C85.2531 74.4999 84.7048 74.6318 84.2155 74.8666L78.8488 69.5H80.8307C81.5212 69.5 82.0807 68.9404 82.0807 68.25C82.0807 67.5595 81.5212 67 80.8307 67H75.8312C75.1408 67 74.5812 67.5595 74.5812 68.25V73.2499C74.5812 73.9399 75.1408 74.4999 75.8312 74.4999C76.5212 74.4999 77.0812 73.9399 77.0812 73.2499V71.2675L82.4479 76.6342C82.2131 77.124 82.0812 77.6718 82.0812 78.2499V86.7494H65.5002C64.8098 86.7494 64.2502 87.309 64.2502 87.9994C64.2502 88.6899 64.8098 89.2494 65.5002 89.2494H82.0812V92.9994H73.7502C73.7502 92.3095 73.1906 91.7494 72.5002 91.7494H53.0002V89.2494ZM51.7502 97.9994C51.0608 97.9994 50.5002 97.4389 50.5002 96.7494V94.2494H71.5856C72.0188 94.9965 72.8269 95.4994 73.7502 95.4994H82.0812V97.9994H51.7502ZM102 108.25C102 108.939 101.439 109.5 100.75 109.5H85.8312C85.1418 109.5 84.5812 108.939 84.5812 108.25V78.7675L90.3136 84.4999H88.3312C87.6413 84.4999 87.0812 85.0595 87.0812 85.7499C87.0812 86.4404 87.6413 86.9999 88.3312 86.9999H93.3312C94.0216 86.9999 94.5812 86.4404 94.5812 85.7499V80.7504C94.5812 80.06 94.0216 79.5004 93.3312 79.5004C92.6408 79.5004 92.0812 80.06 92.0812 80.7504V82.7324L86.3488 76.9999H100.75C101.439 76.9999 102 77.561 102 78.2499V108.25ZM109.5 96.7494C109.5 97.4389 108.939 97.9994 108.25 97.9994H104.5V94.2494H109.5V96.7494Z" fill="#3DCD5C"/>
<path d="M93.291 105.75H93.29C92.5996 105.75 92.0405 106.31 92.0405 107C92.0405 107.69 92.6006 108.25 93.291 108.25C93.9814 108.25 94.541 107.69 94.541 107C94.541 106.31 93.9814 105.75 93.291 105.75Z" fill="#3DCD5C"/>
<path d="M96.375 60.5005H103.25C103.94 60.5005 104.5 59.9409 104.5 59.2505C104.5 58.5601 103.94 58.0005 103.25 58.0005H96.3755C95.6851 58.0005 95.1255 58.5601 95.1255 59.2505C95.125 59.9409 95.6846 60.5005 96.375 60.5005Z" fill="#3DCD5C"/>
<path d="M90.7505 60.5005C91.4409 60.5005 92.0005 59.9409 92.0005 59.2505C92.0005 58.5601 91.4409 58.0005 90.7505 58.0005H90.75C90.0596 58.0005 89.5 58.5601 89.5 59.2505C89.5 59.9409 90.0601 60.5005 90.7505 60.5005V60.5005Z" fill="#3DCD5C"/>
<path d="M59.8755 86.7495H59.8745C59.1841 86.7495 58.625 87.3091 58.625 87.9995C58.625 88.6899 59.1851 89.2495 59.8755 89.2495C60.5659 89.2495 61.1255 88.6899 61.1255 87.9995C61.1255 87.3091 60.5659 86.7495 59.8755 86.7495Z" fill="#3DCD5C"/>
</g>
<defs>
<clipPath id="clip0_922_1002">
<rect width="64" height="64" fill="white" transform="translate(48 48)"/>
</clipPath>
</defs>
</svg>
